<svg xmlns="http://www.w3.org/2000/svg" width="30px" height="30px" fill="none" viewBox="0 0 24 24" class="seo-pages-12fc1ls-MediaObjectItem" role="img" version="1.1"><path fill="#121214" d="M8.05 16.88c0 .34.28.62.62.62.34 0 .62-.28.64-.62V7.76l7.28 4.2-5.57 3.22a.621.621 0 1 0 .62 1.08l5.71-3.3c.36-.21.58-.58.58-1 0-.42-.22-.79-.58-1L9.79 6.59c-.36-.21-.8-.21-1.16 0-.36.21-.58.58-.58 1v9.29Z"/><path fill="#121214" fill-rule="evenodd" d="M1 11.97c0 6.04 4.92 10.96 10.97 10.96 6.04 0 10.97-4.91 10.97-10.96C22.94 5.92 18.02 1 11.97 1 5.92 1 1 5.93 1 11.97Zm1.25 0c0-5.36 4.36-9.72 9.72-9.72 5.35 0 9.72 4.36 9.72 9.72s-4.36 9.72-9.72 9.72-9.72-4.36-9.72-9.72Z" clip-rule="evenodd"/></svg>