<svg xmlns="http://www.w3.org/2000/svg" width="30px" height="30px" fill="none" viewBox="0 0 24 24" class="seo-pages-0" role="img" version="1.1"><path fill="#121214" fill-rule="evenodd" d="M12.633 7.274a3.683 3.683 0 0 0 3.679 3.678 3.682 3.682 0 0 0 3.678-3.678c0-1.846-2.857-5.608-3.183-6.031a.625.625 0 0 0-.99 0c-.326.423-3.184 4.185-3.184 6.03Zm1.25 0c0-.926 1.336-3.084 2.429-4.602 1.092 1.517 2.428 3.675 2.428 4.602a2.431 2.431 0 0 1-2.428 2.428 2.432 2.432 0 0 1-2.43-2.428Z" clip-rule="evenodd"/><path fill="#121214" d="M4.078 17.644c.455 3.205 2.64 5.359 5.44 5.359.975 0 1.92-.265 2.736-.766a.623.623 0 0 0-.127-1.124l-.061-.013c-2.347-1.196-3.368-4.316-3.177-6.015a.624.624 0 1 0-1.242-.141c-.208 1.85.699 4.93 2.936 6.669-.34.093-.696.14-1.064.14-2.483 0-3.901-2.152-4.203-4.285-.21-1.482-.18-5.25 4.174-9.596.324 2.243 1.436 3.753 2.436 5.11v.002c1.053 1.429 1.963 2.664 1.792 4.515a5.44 5.44 0 0 1-.325 1.455l-.167.396a.626.626 0 0 0 1.152.486l.174-.412a6.685 6.685 0 0 0 .41-1.811c.215-2.325-.926-3.875-2.03-5.373l-.002-.002c-1.126-1.53-2.291-3.111-2.284-5.722a.628.628 0 0 0-.368-.573.63.63 0 0 0-.673.104c-5.747 5.119-5.78 9.815-5.527 11.597Z"/></svg>