<svg xmlns="http://www.w3.org/2000/svg" width="30px" height="30px" fill="none" viewBox="0 0 24 24" class="seo-pages-12fc1ls-MediaObjectItem" role="img" version="1.1"><path fill="#121214" d="M15.662 11.39a.623.623 0 0 0 .884-.002l4.521-4.52c.29-.288.448-.673.448-1.08 0-.408-.159-.792-.447-1.08l-3.299-3.3c-.545-.544-1.496-.543-2.04 0l-4.564 4.564a.626.626 0 0 0 .884.884l4.565-4.564c.093-.092.177-.093.271 0l3.3 3.3a.275.275 0 0 1 0 .391l-4.523 4.524a.624.624 0 0 0 0 .883Z"/><path fill="#121214" d="M4.739 21.104a1.483 1.483 0 0 0 2.092 0l4.63-4.63a.624.624 0 1 0-.884-.884l-4.63 4.63a.232.232 0 0 1-.325 0l-3.305-3.306a.23.23 0 0 1 0-.325l4.198-4.199a.784.784 0 0 1 .558-.23c.21 0 .41.081.559.23l1.22 1.223c1.367 1.372 3.556 1.432 4.88.133a3.393 3.393 0 0 0 1.009-2.664 3.411 3.411 0 0 0-1.39-2.502 3.411 3.411 0 0 0-3.916-.05c-.45.315-.808.714-1.063 1.187a.624.624 0 1 0 1.1.593c.162-.299.39-.553.678-.754.718-.5 1.754-.488 2.46.032.525.385.838.947.883 1.584a2.136 2.136 0 0 1-.636 1.681c-.822.808-2.25.751-3.12-.123l-1.22-1.222a2.023 2.023 0 0 0-1.442-.599h-.002c-.545 0-1.057.212-1.442.597l-4.2 4.2a1.484 1.484 0 0 0 .002 2.093l3.306 3.305ZM12.179 19.134a.625.625 0 0 1 0-1.25 5.709 5.709 0 0 0 5.703-5.702.625.625 0 1 1 1.25 0c0 3.833-3.12 6.952-6.953 6.952Z"/><path fill="#121214" d="M11.554 21.61c0 .346.28.626.625.626 5.543 0 10.054-4.51 10.054-10.054a.626.626 0 0 0-1.25 0c0 4.855-3.95 8.804-8.804 8.804a.625.625 0 0 0-.625.625Z"/></svg>