<svg xmlns="http://www.w3.org/2000/svg" width="30px" height="30px" fill="none" viewBox="0 0 24 24" class="seo-pages-0" role="img" version="1.1"><path fill="#121214" fill-rule="evenodd" d="M14.32 5.75h1.16c.45 0 .86-.23 1.11-.6.25-.37.3-.84.13-1.25l-.35-.86a1.83 1.83 0 0 0-1.7-1.14H9.29c-.75 0-1.42.45-1.7 1.15l-.35.86c-.17.41-.12.88.13 1.25s.66.59 1.11.59h1.16v.992A3.484 3.484 0 0 0 6.34 9.6l-.89 4.85c-.08.41-.09.81-.03 1.2a2.877 2.877 0 0 0-1.92 2.7v.8c0 1.58 1.28 2.87 2.86 2.87h11.21a2.88 2.88 0 0 0 2.87-2.86v-.8c0-1.48-1.16-2.73-2.63-2.85-.28-.02-.55.17-.65.44a2.443 2.443 0 0 1-2.68 1.59l-.92-.15c-.63-.1-1.26-.13-1.88-.11-.03 0-.69.01-1.3.11l-.91.15c-.79.13-1.57-.13-2.13-.7-.25-.25-.43-.54-.55-.85a.358.358 0 0 0-.04-.11 2.51 2.51 0 0 1-.07-1.19l.89-4.86A2.24 2.24 0 0 1 9.77 8h4.39c1.08 0 2 .77 2.2 1.83l.68 3.71a.626.626 0 0 0 1.23-.23l-.68-3.71a3.484 3.484 0 0 0-3.27-2.856V5.75Zm-1.24 0h-2.2v.99h2.2v-.99Zm-3.79-2.6c-.24 0-.45.14-.54.37l-.35.86.08.12h7c.01 0 .05 0 .07-.04l-.34-.94a.577.577 0 0 0-.54-.36H9.29v-.01ZM5.81 16.84c-.62.23-1.06.83-1.06 1.51v.8c0 .89.72 1.61 1.61 1.61h11.2c.89 0 1.61-.72 1.61-1.61v-.8c0-.69-.44-1.29-1.07-1.52-.75 1.4-2.28 2.18-3.84 1.93l-.91-.15c-.54-.09-1.1-.12-1.64-.1-.01 0-.61.01-1.14.1l-.91.15c-1.2.19-2.37-.2-3.22-1.07-.26-.25-.47-.54-.63-.85Z" clip-rule="evenodd"/><path fill="#121214" fill-rule="evenodd" d="M13.87 16.27a1.558 1.558 0 0 0 1.37-.46c.36-.37.51-.89.42-1.4l-.58-3.19a2.047 2.047 0 0 0-2.01-1.68h-2.19c-.99 0-1.83.71-2.01 1.68l-.58 3.18c-.09.51.07 1.03.43 1.4.36.37.87.54 1.39.46l1.23-.2c.4-.06.81-.06 1.21 0l1.32.21Zm-1.14-1.44a5.322 5.322 0 0 0-1.59 0l-1.23.2a.35.35 0 0 1-.3-.1.338.338 0 0 1-.09-.3l.58-3.18c.07-.38.4-.65.78-.65h2.2c.38 0 .71.27.78.65l.58 3.19c.03.15-.04.25-.09.3a.35.35 0 0 1-.3.1l-1.32-.21Z" clip-rule="evenodd"/></svg>