<svg class="seo-pages-0" data-testid="IconCustomerSupport24" fill="none" height="24" viewBox="0 0 24 24" width="24" xmlns="http://www.w3.org/2000/svg"><path clip-rule="evenodd" d="M14.504 20.693h.335a3.316 3.316 0 0 0 3.313-3.313v-.633a4.184 4.184 0 0 0 3.817-4.163A4.185 4.185 0 0 0 18.15 8.42a6.2 6.2 0 0 0-1.87-4.349c-1.206-1.184-2.823-1.844-4.494-1.788-3.29.06-5.983 2.795-6.126 6.153A4.185 4.185 0 0 0 2 12.584a4.183 4.183 0 0 0 4.267 4.18.612.612 0 0 0 .612-.613v-6.55c1.111-.086 3.264-.428 4.573-1.725.127-.126.244-.257.349-.394.553.762 1.624 1.625 3.69 1.974a.615.615 0 0 0 .707-.502.614.614 0 0 0-.503-.706c-2.633-.446-3.15-1.802-3.244-2.175.06-.275.09-.563.09-.864a.612.612 0 1 0-1.225 0c0 .22-.022.427-.066.622a.599.599 0 0 0-.033.132c-.112.393-.32.738-.625 1.041-.985.978-2.726 1.272-3.702 1.36.175-2.66 2.314-4.808 4.918-4.857a5.035 5.035 0 0 1 3.614 1.44 4.984 4.984 0 0 1 1.504 3.583v8.85a2.09 2.09 0 0 1-2.088 2.088h-.335a1.631 1.631 0 0 0-1.51-1.016h-2.181c-.899 0-1.63.73-1.63 1.629a1.63 1.63 0 0 0 1.63 1.629h2.181a1.63 1.63 0 0 0 1.51-1.017ZM5.654 9.675a2.96 2.96 0 0 0-2.43 2.91 2.96 2.96 0 0 0 2.43 2.906V9.675Zm15.09 2.91a2.959 2.959 0 0 1-2.592 2.931V9.651a2.96 2.96 0 0 1 2.593 2.933ZM10.41 20.08a.41.41 0 0 1 .403-.404h2.183a.41.41 0 0 1 .404.404.41.41 0 0 1-.404.405h-2.182a.41.41 0 0 1-.405-.405Z" fill="#121214" fill-rule="evenodd"/><path d="M7.997 12.726a.613.613 0 0 1-.554-.873c.213-.454.845-1.22 1.865-1.22 1.014 0 1.656.76 1.876 1.212a.613.613 0 1 1-1.102.537c-.008-.016-.275-.525-.774-.525-.486 0-.739.483-.755.514v.002a.612.612 0 0 1-.556.353ZM15.861 12.726a.611.611 0 0 1-.55-.345l-.002-.001c-.02-.037-.286-.524-.775-.524-.492 0-.747.502-.757.523a.617.617 0 0 1-.817.283.61.61 0 0 1-.29-.81c.213-.453.845-1.22 1.864-1.22 1.015 0 1.658.761 1.877 1.213a.613.613 0 0 1-.55.88Z" fill="#121214"/></svg>