<svg xmlns="http://www.w3.org/2000/svg" width="30px" height="30px" fill="none" viewBox="0 0 24 24" class="seo-pages-12fc1ls-MediaObjectItem" role="img" version="1.1"><path fill="#fff" d="M11.89 21.78C6.44 21.78 2 17.34 2 11.89S6.44 2 11.89 2s9.89 4.44 9.89 9.89-4.44 9.89-9.89 9.89Zm0-18.53c-4.76 0-8.64 3.88-8.64 8.64 0 4.76 3.88 8.64 8.64 8.64 4.76 0 8.64-3.88 8.64-8.64 0-4.76-3.88-8.64-8.64-8.64Z"/><path fill="#fff" d="M18.73 11.19h-1.36V9.83c0-.08-.06-.14-.14-.14h-.66c-.08 0-.14.06-.14.14v1.36h-1.36c-.08 0-.14.06-.14.14v.66c0 .08.06.14.14.14h1.36v1.36c0 .08.06.14.14.14h.66c.08 0 .14-.06.14-.14v-1.36h1.36c.08 0 .14-.06.14-.14v-.66c0-.08-.06-.14-.14-.14ZM9.07 13.53c0-.08-.06-.14-.14-.14H7.05l1.08-1.05c.64-.62.94-1.11.94-1.81 0-.92-.68-1.57-1.89-1.57-1.22 0-1.92.81-1.92 1.66 0 .19.02.34.06.47.04.13.18.11.18.11l.96-.18s.12-.02.09-.15a.732.732 0 0 1-.03-.22c0-.4.31-.63.66-.63.43 0 .68.27.68.64 0 .34-.12.57-.56.99l-2 1.93s-.05.04-.05.12v.65c0 .08.06.14.14.14h3.55c.08 0 .14-.06.14-.14v-.82h-.01ZM12.14 10.9c-.47 0-.83.12-1.18.37l.1-.99s.01-.13.18-.13h2.32c.08 0 .14-.06.14-.14V9.2c0-.15-.14-.14-.14-.14h-3c-.38 0-.4.39-.4.39s-.18 2.15-.19 2.33c-.02.18.13.21.13.21l.66.16s.13.03.23-.09c.24-.29.57-.31.95-.31.53 0 .87.31.87.88 0 .6-.35.93-.89.93-.41 0-.75-.13-.81-.49-.01-.15-.17-.17-.17-.17l-.84-.19s-.2-.06-.22.12v.1c0 .88.68 1.67 2.02 1.67 1.29 0 2.12-.83 2.12-1.97 0-1.11-.68-1.73-1.88-1.73Z"/></svg>