<svg xmlns="http://www.w3.org/2000/svg" width="30px" height="30px" fill="none" viewBox="0 0 24 24" class="seo-pages-12fc1ls-MediaObjectItem" role="img" version="1.1"><path fill="#ffff" fill-rule="evenodd" d="m5.932 9.548-.676-1.053 6.58-4.221.676 1.052-6.58 4.222Z" clip-rule="evenodd"/><path fill="#ffff" fill-rule="evenodd" d="m3.129 8.155 2.226 3.47.938-.602-2.227-3.47-.937.602Zm2.038 4.958a.628.628 0 0 1-.527-.287L1.739 8.304a.627.627 0 0 1 .189-.864l1.989-1.276a.628.628 0 0 1 .864.188l2.902 4.522a.629.629 0 0 1-.19.864l-1.99 1.276a.617.617 0 0 1-.336.1ZM11.257 2.94l2.227 3.47.937-.603-2.227-3.47-.937.602Zm2.039 4.957a.628.628 0 0 1-.527-.287L9.867 3.088a.627.627 0 0 1 .189-.864L12.045.948a.628.628 0 0 1 .864.188l2.902 4.522a.627.627 0 0 1-.19.864l-1.988 1.276a.625.625 0 0 1-.337.1ZM12.34 19.534l-.676-1.053 6.58-4.221.676 1.052-6.58 4.222Z" clip-rule="evenodd"/><path fill="#ffff" fill-rule="evenodd" d="m9.536 18.141 2.227 3.47.937-.602-2.227-3.47-.937.602Zm2.039 4.958a.628.628 0 0 1-.527-.287L8.146 18.29a.627.627 0 0 1 .189-.864l1.989-1.276a.627.627 0 0 1 .864.188l2.902 4.522a.627.627 0 0 1-.19.864L11.913 23a.625.625 0 0 1-.337.1ZM17.664 12.926l2.227 3.47.937-.602-2.226-3.47-.938.602Zm2.039 4.958a.628.628 0 0 1-.527-.287l-2.902-4.522a.629.629 0 0 1 .19-.864l1.99-1.276a.626.626 0 0 1 .863.188l2.9 4.522a.627.627 0 0 1-.188.864l-1.99 1.276a.625.625 0 0 1-.336.099ZM14.459 16.999l-2.086-3.252 1.053-.676 2.086 3.252-1.053.676ZM10.45 10.722l-2.1-3.244 1.05-.68 2.099 3.244-1.05.68Z" clip-rule="evenodd"/><path fill="#ffff" fill-rule="evenodd" d="M11.976 10.944a1.032 1.032 0 0 0-.865 1.588 1.03 1.03 0 1 0 .865-1.588Zm.006 3.311a2.285 2.285 0 0 1-1.924-1.048 2.286 2.286 0 0 1 .688-3.153 2.287 2.287 0 0 1 3.152.688v.001a2.284 2.284 0 0 1-1.916 3.512Z" clip-rule="evenodd"/></svg>