<svg width="200px" height="320px" viewBox="0 0 2000 320" version="1.1" xmlns="http://www.w3.org/2000/svg" xmlns:xlink="http://www.w3.org/1999/xlink" xmlns:sketch="http://www.bohemiancoding.com/sketch/ns">
  
  <defs/>
  <g id="Page-1" stroke="none" stroke-width="1" fill="none" fill-rule="evenodd" sketch:type="MSPage">
      <g id="longer-wrecker" sketch:type="MSArtboardGroup">
          <rect id="Rectangle-26" fill="#121212" sketch:type="MSShapeGroup" x="0" y="0" width="2000" height="320"/>
          <path d="M1404.366,307.000923 C1408.82412,307.000923 1412.94468,304.626285 1415.18172,300.768741 L1439.11632,259.463712 C1441.23586,255.805858 1446.51498,255.805858 1448.63201,259.46255 L1456.1838,272.492924 C1458.40922,276.335317 1462.5067,278.709234 1466.94787,278.725898 L1480.05578,278.78289 C1482.01028,278.792058 1483.81474,279.837914 1484.79348,281.529644 L1495.91738,300.759469 C1498.15056,304.621695 1502.2754,307.000923 1506.738,307.000923 L2002.023,307.000923 C2003.956,307.000923 2005.523,305.43392 2005.523,303.500923 C2005.523,301.567926 2003.956,300.000923 2002.023,300.000923 L1506.738,300.000923 C1504.77441,300.000923 1502.95935,298.953984 1501.97696,297.254971 L1490.85262,278.024377 C1488.62811,274.179389 1484.52941,271.803796 1480.08742,271.782961 L1466.97622,271.725956 C1465.02185,271.718622 1463.22005,270.674734 1462.24069,268.983778 L1454.6892,255.953922 C1449.87702,247.641988 1437.87614,247.641988 1433.05967,255.954159 L1409.12568,297.258134 C1408.14119,298.955782 1406.32762,300.000923 1404.366,300.000923 L965,300.000923 L965,307.000923 L1404.366,307.000923 Z" id="Shape" fill="#fff" sketch:type="MSShapeGroup"/>
          <path d="M1488.375,300.917 C1488.375,303.401 1486.359,305.417 1483.875,305.417 C1481.391,305.417 1479.375,303.401 1479.375,300.917 C1479.375,298.43 1481.391,296.417 1483.875,296.417 C1486.359,296.417 1488.375,298.43 1488.375,300.917" id="Fill-18" fill="#fff" sketch:type="MSShapeGroup"/>
          <path d="M1479.375,288.917 C1479.375,291.401 1477.359,293.417 1474.875,293.417 C1472.391,293.417 1470.375,291.401 1470.375,288.917 C1470.375,286.43 1472.391,284.417 1474.875,284.417 C1477.359,284.417 1479.375,286.43 1479.375,288.917" id="Fill-20" fill="#fff" sketch:type="MSShapeGroup"/>
          <path d="M1467.375,300.917 C1467.375,303.401 1465.359,305.417 1462.875,305.417 C1460.391,305.417 1458.375,303.401 1458.375,300.917 C1458.375,298.43 1460.391,296.417 1462.875,296.417 C1465.359,296.417 1467.375,298.43 1467.375,300.917" id="Fill-21" fill="#fff" sketch:type="MSShapeGroup"/>
          <g id="Wrecker" sketch:type="MSLayerGroup" transform="translate(1791.000000, 8.000000)" stroke="#fff">
              <path d="M190.184313,230 L219.003928,230 C222.868223,230 226,226.862148 226,222.99141 L226,139.00859 C226,135.135891 222.867752,132 219.003928,132 L101.996601,132 C74.9325047,132 53,153.938047 53,181 L53,222.99141 C53,226.864109 56.1322483,230 59.9960724,230 L69.8156874,230 C74.5869676,201.067955 99.7163603,179 130,179 C160.28364,179 185.413032,201.067955 190.184313,230 Z" id="Rectangle-17" stroke-width="7" stroke-linejoin="round" fill="#121212" sketch:type="MSShapeGroup"/>
              <rect id="Rectangle-16" stroke-width="7" fill="#121212" sketch:type="MSShapeGroup" transform="translate(53.500000, 223.500000) rotate(-270.000000) translate(-53.500000, -223.500000) " x="43" y="207" width="21" height="33" rx="6"/>
              <g id="Oval-35-+-Triangle-1-+-Oval-42" transform="translate(69.000000, 178.000000)" sketch:type="MSShapeGroup" stroke-linejoin="round">
                  <path d="M61,108.444444 C87.2028431,108.444444 108.444444,87.2028431 108.444444,61 C108.444444,34.7971569 87.2028431,13.5555556 61,13.5555556 C34.7971569,13.5555556 13.5555556,34.7971569 13.5555556,61 C13.5555556,87.2028431 34.7971569,108.444444 61,108.444444 Z M61.0555556,77.5555556 C70.1682539,77.5555556 77.5555556,70.1682539 77.5555556,61.0555556 C77.5555556,51.9428572 70.1682539,44.5555556 61.0555556,44.5555556 C51.9428572,44.5555556 44.5555556,51.9428572 44.5555556,61.0555556 C44.5555556,70.1682539 51.9428572,77.5555556 61.0555556,77.5555556 Z" id="Oval-35" stroke-width="7" stroke-linecap="round" fill="#121212" transform="translate(61.000000, 61.000000) rotate(-20.000000) translate(-61.000000, -61.000000) "/>
                  <path d="M67.0841486,59.5878889 L70.3866906,58.2295173 C71.7742677,57.6587917 72.9417242,58.4161178 72.9938387,59.9084824 L73.0458106,61.3967612 C73.0981216,62.8947536 71.9835038,63.7251696 70.5621321,63.2535019 L67.1739677,62.1291739 C67.2523763,61.7178574 67.2864497,61.2916901 67.2712327,60.85593 C67.2559569,60.4184892 67.1918049,59.9941567 67.0841486,59.5878889 Z M63.7837251,55.386639 L65.9373934,52.4609762 C66.8252042,51.2549247 66.3798674,49.9382475 64.939027,49.5250932 L63.5075296,49.1146179 C62.0721022,48.7030157 60.9910784,49.5793062 61.1050858,51.0753343 L61.3817849,54.7062356 C61.7988853,54.7298264 62.2196377,54.7998171 62.6377857,54.9197191 C63.043653,55.0360997 63.4266829,55.1936579 63.7837251,55.386639 Z M54.9872596,58.5923119 L51.502973,57.7466638 C50.0449354,57.3927931 49.5455884,56.0938898 50.3806168,54.8559093 L51.213359,53.6213182 C52.0515363,52.3786692 53.4413874,52.3620044 54.3140619,53.579053 L56.4121953,56.50515 C56.099364,56.7962469 55.8146761,57.1270768 55.5656916,57.4962115 C55.3292069,57.8468145 55.1368269,58.2143361 54.9872596,58.5923119 Z M56.7417534,65.9542469 L54.8501457,69.0239551 C54.0630364,70.3012791 52.6733992,70.3748032 51.7540477,69.198087 L50.8372133,68.0245924 C49.9143949,66.8434388 50.3280333,65.5164622 51.7551866,65.0625881 L55.1762482,63.9745961 C55.3515757,64.3401824 55.5686639,64.6924069 55.828344,65.0247823 C56.1024261,65.3755913 56.4094417,65.6857118 56.7417534,65.9542469 Z M64.1709232,66.5570179 L66.5209251,69.322375 C67.4925023,70.4656753 67.1330063,71.810019 65.7297875,72.3207489 L64.3304104,72.8300805 C62.9219,73.3427364 61.7876915,72.5392845 61.7970462,71.0417263 L61.8197797,67.4024049 C62.2358608,67.3499383 62.6523775,67.2505718 63.0627662,67.1012025 C63.4585927,66.9571334 63.8288857,66.7737658 64.1709232,66.5570179 Z" id="Triangle-1" stroke-width="1.5999999" fill="#fff"/>
              </g>
              <path d="M37.1091997,182 C37.1091997,146.101491 66.2205411,117 102.101279,117 L258,117" id="Rectangle-17" stroke-width="7" stroke-linecap="round" sketch:type="MSShapeGroup"/>
              <path d="M104.5,122.5 L104.5,118.5" id="Line" stroke-width="7" stroke-linecap="round" sketch:type="MSShapeGroup"/>
              <path d="M179.5,122.5 L179.5,118.5" id="Line" stroke-width="7" stroke-linecap="round" sketch:type="MSShapeGroup"/>
              <path d="M43.5163817,171.923638 L39.6037913,171.091991" id="Line" stroke-width="7" stroke-linecap="round" sketch:type="MSShapeGroup"/>
              <path d="M27,21 L37.3148147,21 C39.5289455,21 42.6288441,22.2214587 44.2490098,23.7379178 L130,104" id="Path-353" stroke-width="7" stroke-linecap="round" sketch:type="MSShapeGroup"/>
              <path d="M30.4297109,35.9225265 C36.9773826,34.3115916 41.8338576,28.4010878 41.8338576,21.3562935 C41.8338576,13.0720223 35.1181289,6.35629351 26.8338576,6.35629351 C18.5495864,6.35629351 11.8338576,13.0720223 11.8338576,21.3562935" id="Oval-14" stroke-width="7" stroke-linecap="round" sketch:type="MSShapeGroup" transform="translate(26.833858, 21.139410) rotate(-126.000000) translate(-26.833858, -21.139410) "/>
              <path d="M49.5,14.5 L188.5,61.5" id="Line" stroke-width="7" stroke-linecap="round" stroke-dasharray="0.1,10" sketch:type="MSShapeGroup"/>
              <path d="M13.5,43.5 L13.5,154.04863" id="Line" stroke-width="7" stroke-linecap="round" stroke-dasharray="0.1,10" sketch:type="MSShapeGroup"/>
              <rect id="Rectangle-18" stroke-width="7" fill="#121212" sketch:type="MSShapeGroup" x="3" y="154" width="20" height="20" rx="100"/>
              <path d="M180,104 L195,62 L207,62" id="Path-356" stroke-width="7" stroke-linecap="round" stroke-linejoin="round" fill="#121212" sketch:type="MSShapeGroup"/>
              <path d="M15.5759557,195.642949 C20.5465184,195.642949 24.5759557,191.613512 24.5759557,186.642949 C24.5759557,181.672386 20.5465184,177.642949 15.5759557,177.642949 C10.6053929,177.642949 8.52930881,184.40151 -0.37499379,181.674619" id="Oval-15" stroke-width="7" stroke-linecap="round" fill="#121212" sketch:type="MSShapeGroup" transform="translate(12.100481, 186.642949) rotate(75.000000) translate(-12.100481, -186.642949) "/>
          </g>
          <path d="M967.577984,303.5 L-48.1486581,304.5" id="Path-409" stroke="#fff" stroke-width="7" stroke-linejoin="round" sketch:type="MSShapeGroup"/>
          <g id="Imported-Layers" sketch:type="MSLayerGroup" transform="translate(1569.000000, 141.490005)">
              <path d="M27.4795859,73.7299444 C28.7096443,73.7299444 29.9540057,73.8440333 31.1769126,74.074588 L142.351783,94.834012 C153.143399,96.8495824 160.280599,107.243556 158.259107,118.003564 C157.30319,123.085273 155.067153,134.98617 122.50398,134.98617 C110.558587,134.98617 95.6500891,133.334258 78.1956559,130.073218 C47.0365607,124.254684 25.8180536,116.755717 15.1313254,107.785478 C7.10495603,101.044726 6.99291583,94.979 7.93929796,89.9329435 C9.70333518,80.5443787 17.9227951,73.7299444 27.4795859,73.7299444 M27.4795859,66.5993889 C14.7093867,66.5993889 3.34803353,75.6504407 0.911755096,88.6185444 C-1.84157327,103.267082 3.97974956,123.470323 76.8773957,137.082554 C95.8741695,140.631194 110.787435,142.116726 122.50398,142.116726 C155.751314,142.116726 163.25324,130.1469 165.28665,119.315586 C168.039979,104.667048 158.359228,90.5699398 143.670043,87.8270528 L32.492789,67.0652519 C30.8098021,66.7515074 29.1315829,66.5993889 27.4795859,66.5993889" id="Fill-1" fill="#fff" sketch:type="MSShapeGroup"/>
              <path d="M162.442736,70.3714528 L160.924234,70.0862306 C159.114904,69.7487176 157.374705,70.9371435 157.0362,72.7387972 L157.024281,72.8053491 C156.685777,74.6070028 157.877694,76.3421046 159.68464,76.6796176 L161.205526,76.9648398 C164.378409,77.5566759 166.466648,80.6014231 165.873073,83.7626361 L164.995822,88.4379037 C164.657318,90.2395574 165.846851,91.9746593 167.656181,92.3121722 L167.720545,92.3240565 C169.529875,92.6615694 171.270074,91.4731435 171.608578,89.6714898 L172.485829,84.9985991 C173.763564,78.1936722 169.267653,71.6454454 162.442736,70.3714528" id="Fill-2" fill="#fff" sketch:type="MSShapeGroup"/>
              <path d="M22.8477963,46.6813704 L21.3269101,46.3961481 C14.5019932,45.1221556 7.93453029,49.6048981 6.65679523,56.409825 L5.77954429,61.0827157 C5.44103985,62.8843694 6.63057305,64.6194713 8.43990312,64.9569843 L8.50426664,64.9688685 C10.3135967,65.3087583 12.0537956,64.1203324 12.3923,62.3186787 L13.269551,57.645788 C13.8631256,54.4821981 16.9168171,52.3976991 20.0873164,52.9895352 L21.6082026,53.2747574 C23.4175326,53.6122704 25.1577315,52.4238444 25.496236,50.6221907 L25.5081551,50.5556389 C25.8466596,48.7539852 24.6547425,47.0188833 22.8477963,46.6813704" id="Fill-3" fill="#fff" sketch:type="MSShapeGroup"/>
              <path d="M146.115857,77.8062454 L147.937106,68.1134435 C153.741742,37.2024852 133.317051,7.45143056 102.317673,1.66141944 C71.3159108,-4.12859167 41.4774596,16.236275 35.6704398,47.1472333 L33.8491906,56.8400352" id="Stroke-4" stroke="#fff" stroke-width="7.13999958" stroke-linecap="round" sketch:type="MSShapeGroup"/>
              <path d="M91.8240354,22.7702407 C93.9384962,22.7702407 96.0839469,22.9651426 98.2389329,23.3668306 C117.045,26.8798176 129.436169,44.9272537 125.912863,63.678238 L124.809148,69.5585694 L56.7053917,56.8400352 L57.8091069,50.9597037 C60.9271619,34.3573935 75.4757013,22.7702407 91.8240354,22.7702407 M91.8240354,15.6396852 C71.7426171,15.6396852 54.4812745,29.9412028 50.7791802,49.6476815 L49.675465,55.528013 C48.9483956,59.3999046 51.5062496,63.1244315 55.3895153,63.8493713 L123.493271,76.5679056 C123.929513,76.6487185 124.370522,76.689125 124.809148,76.689125 C126.241832,76.689125 127.650678,76.2612917 128.849746,75.4436546 C130.413541,74.3740713 131.488651,72.7292898 131.839074,70.8705917 L132.942789,64.9902602 C137.186014,42.4054139 122.208385,20.5882907 99.5548093,16.3574944 C97.0041068,15.8821241 94.40096,15.6396852 91.8240354,15.6396852" id="Fill-5" fill="#fff" sketch:type="MSShapeGroup"/>
              <path d="M95.4188572,143.307529 L60.667324,136.818723 C59.3729021,136.576284 58.5194895,135.335568 58.7626405,134.044937 L61.8115643,117.813416 C62.0547154,116.522785 63.2990768,115.671872 64.5934987,115.914311 L99.3450319,122.403117 C100.639454,122.645556 101.492866,123.886272 101.249715,125.176903 L98.2007915,141.408424 C97.9600243,142.699055 96.7132791,143.549968 95.4188572,143.307529 L95.4188572,143.307529 Z" id="Fill-6" fill="#121212" sketch:type="MSShapeGroup"/>
              <path d="M95.4188572,143.307529 L60.667324,136.818723 C59.3729021,136.576284 58.5194895,135.335568 58.7626405,134.044937 L61.8115643,117.813416 C62.0547154,116.522785 63.2990768,115.671872 64.5934987,115.914311 L99.3450319,122.403117 C100.639454,122.645556 101.492866,123.886272 101.249715,125.176903 L98.2007915,141.408424 C97.9600243,142.699055 96.7132791,143.549968 95.4188572,143.307529 L95.4188572,143.307529 Z" id="Stroke-7" stroke="#fff" stroke-width="7.13999958" stroke-linecap="round" sketch:type="MSShapeGroup"/>
              <path d="M31.1363874,150.46423 L3.4862959,150.46423 L8.70689253,123.189855 L34.1137962,134.63915 L31.1363874,150.46423 L31.1363874,150.46423 Z" id="Stroke-8" stroke="#fff" stroke-width="7.13999958" stroke-linecap="round" stroke-linejoin="round" sketch:type="MSShapeGroup"/>
              <path d="M109.812447,150.46423 L147.52947,150.46423 M121.083215,101.717375 L137.617488,126.408112 M116.968717,122.305666 L141.731986,105.819821 M32.8908893,84.0573657 L49.4251624,108.745726 M28.7763916,104.645656 L53.5396601,88.159812" id="Stroke-9" stroke="#fff" stroke-width="7.13999958" stroke-linecap="round" sketch:type="MSShapeGroup"/>
          </g>
      </g>
  </g>
</svg>