<svg xmlns="http://www.w3.org/2000/svg" width="30px" height="30px" fill="none" viewBox="0 0 24 24" class="seo-pages-12fc1ls-MediaObjectItem" role="img" version="1.1"><path fill="#fff" fill-rule="evenodd" d="M5.65 13.125v-10.1c0-.2.1-.3.2-.4l1.1-1.1c.5-.5 1.2-.5 1.7 0l1.1 1.1c.1.1.2.3.2.4v10.1h.5c.3 0 .6.3.6.6v1.6c0 1.04-.507 1.91-1.3 2.393v1.307c0 .7-.6 1.4-1.4 1.4v1.7c0 .4-.2.7-.6.7-.3 0-.6-.3-.6-.6v-1.8c-.8 0-1.4-.6-1.4-1.4V17.75a2.778 2.778 0 0 1-1.4-2.425v-1.6c0-.3.3-.6.6-.6h.7Zm2.9 0v-3.2h-1.7v3.2h1.7Zm0-6.6v2.2h-1.7v-2.2h1.7Zm0-1.2v-2.1l-.9-.9-.8.9v2.1h1.7Zm-.3 12.8h-1.1c-.067 0-.134-.002-.2-.007v.907c0 .1.1.2.2.2h1.2c.1 0 .2-.1.2-.2v-.914c-.098.01-.198.014-.3.014Zm-2.7-3.7v.9c0 .9.7 1.6 1.6 1.6h1.1c.9 0 1.6-.7 1.6-1.6v-.9h-4.3Z" clip-rule="evenodd"/><path fill="#fff" d="M17.75 8.418v.007a1.8 1.8 0 1 1-1.3-1.73v-2.97c0-.4.2-.7.5-.9.3-.2.7-.2 1 0l1.4.9c.3.2.4.6.2.9-.2.3-.6.4-.9.2l-.9-.6v4.193Z"/></svg>