<svg xmlns="http://www.w3.org/2000/svg" width="30px" height="30px" fill="none" viewBox="0 0 24 24" class="seo-pages-12fc1ls-MediaObjectItem" role="img" version="1.1"><path fill="#121214" fill-rule="evenodd" d="M14.45 7.5h-4.8c-.4 0-.6-.3-.6-.7V4.5c0-.3.3-.6.6-.6h4.8c.3 0 .6.3.6.6v2.3c0 .4-.3.7-.6.7Zm-4.2-1.3h3.5v-1h-3.5v1Z" clip-rule="evenodd"/><path fill="#121214" d="M9.65 13h4.8c.3 0 .6-.3.6-.6s-.3-.6-.6-.6h-4.8c-.3 0-.6.3-.6.6s.3.6.6.6Z"/><path fill="#121214" fill-rule="evenodd" d="M9.35 15.1h5.3c1.3 0 2.3-1 2.3-2.3V6.9h.7c.4 0 .6-.3.6-.6s-.3-.6-.6-.6h-.7V3.8c0-1.3-1-2.3-2.3-2.3h-5.3c-1.3 0-2.3 1-2.3 2.3v1.8h-.7c-.3 0-.6.2-.6.6 0 .4.3.7.6.7h.7v5.9c0 1.3 1 2.3 2.3 2.3Zm-1-11.3c0-.6.4-1.1 1-1.1h5.4c.6 0 1.1.5 1.1 1.1v9c0 .6-.5 1.1-1.1 1.1h-5.3c-.6 0-1.1-.5-1.1-1.1v-9Z" clip-rule="evenodd"/><path fill="#121214" d="M11.85 19.1c-1 0-2-.4-2.8-1.1-.2-.2-.2-.6 0-.9.2-.2.6-.2.9 0 1.1 1.1 2.8 1 3.8 0 .2-.2.6-.2.9 0 .2.2.2.6 0 .9-.7.7-1.8 1.1-2.8 1.1ZM11.95 22.4c-1.8 0-3.6-.7-5-2.1-.2-.2-.2-.6 0-.9.2-.2.6-.2.9 0 2.3 2.3 6.1 2.3 8.4-.1.2-.2.6-.2.9 0 .2.2.2.6 0 .9-1.5 1.5-3.3 2.2-5.2 2.2Z"/></svg>