<svg xmlns="http://www.w3.org/2000/svg" width="30px" height="30px" fill="none" viewBox="0 0 24 24" class="seo-pages-12fc1ls-MediaObjectItem" role="img" version="1.1"><path fill="#121214" fill-rule="evenodd" d="M6.3 5.025c0-.345.28-.625.625-.625h4.8c.345 0 .625.28.625.625v2.3c0 .345-.28.625-.625.625h-4.8a.625.625 0 0 1-.625-.625v-2.3Zm1.25.625V6.7h3.55V5.65H7.55Z" clip-rule="evenodd"/><path fill="#121214" d="M6.925 12.3a.625.625 0 1 0 0 1.25h4.8a.625.625 0 1 0 0-1.25h-4.8Z"/><path fill="#121214" fill-rule="evenodd" d="M6.625 2C5.38 2 4.3 3.08 4.3 4.325V6.1h-.675a.625.625 0 1 0 0 1.25H4.3v5.975c0 1.245 1.08 2.325 2.325 2.325h5.3c1.369 0 2.325-1.104 2.325-2.325V7.35h.675a.625.625 0 1 0 0-1.25h-.675V4.325C14.25 3.08 13.17 2 11.925 2h-5.3ZM5.55 4.325c0-.555.52-1.075 1.075-1.075h5.3c.555 0 1.075.52 1.075 1.075v9a1.06 1.06 0 0 1-1.075 1.075h-5.3c-.555 0-1.075-.52-1.075-1.075v-9Z" clip-rule="evenodd"/><path fill="#121214" d="M16.725 14.1c.345 0 .625.28.625.625 0 2.152-1.78 3.907-3.89 4.024a.625.625 0 1 1-.07-1.248c1.49-.083 2.71-1.328 2.71-2.776 0-.345.28-.625.625-.625Z"/><path fill="#121214" d="M20.025 14.1c.345 0 .625.28.625.625 0 3.948-3.18 7.116-7.108 7.225a.625.625 0 0 1-.034-1.25c3.271-.09 5.892-2.723 5.892-5.975 0-.345.28-.625.625-.625Z"/></svg>