<svg xmlns="http://www.w3.org/2000/svg" width="30px" height="30px" fill="none" viewBox="0 0 24 24" class="seo-pages-12fc1ls-MediaObjectItem" role="img" version="1.1"><path fill="#fff" d="M6.25 17.869a.626.626 0 0 0 .882.002l4.992-4.963 4.545 4.522-3.905 3.894v-5.94a.625.625 0 0 0-1.25 0v6.439c0 .422.253.8.644.962a1.037 1.037 0 0 0 1.136-.224l4.258-4.246c.238-.237.369-.552.369-.887 0-.335-.131-.65-.37-.888l-4.54-4.514 4.568-4.542c.237-.236.37-.551.37-.886 0-.335-.13-.65-.368-.888l-4.288-4.275a1.036 1.036 0 0 0-1.136-.223c-.39.162-.643.54-.643.962V8.65a.626.626 0 0 0 1.25 0V2.674l3.934 3.923-4.573 4.548-5.02-4.991a.625.625 0 1 0-.881.886l5.014 4.987-4.986 4.958a.623.623 0 0 0-.003.884Z"/></svg>