<svg class="seo-pages-0" data-testid="IconKeys124" fill="none" height="24" viewBox="0 0 24 24" width="24" xmlns="http://www.w3.org/2000/svg"><path d="M9.022 8.73c-.37.38-.369 1 .02 1.38a.978.978 0 0 0 1.362.01c.369-.381.368-1-.021-1.38a.969.969 0 0 0-1.361-.01ZM10.405 10.118l.018-.018-.018.018ZM9.021 8.732l-.018.018.018-.018ZM6.473 12.74c-.39-.38-.39-1-.021-1.38a.969.969 0 0 1 1.36.01c.39.38.39.999.022 1.38a.978.978 0 0 1-1.361-.01Z" fill="#fff"/><path d="M7.835 12.748a.944.944 0 0 0 .018-.018l-.018.018ZM6.451 11.362l-.018.018a.989.989 0 0 1 .018-.018Z" fill="#fff"/><path clip-rule="evenodd" d="M14.07 8.18a3 3 0 0 0 3.232-2.99c0-1.65-1.34-2.99-2.99-2.99a3 3 0 0 0-2.99 2.984 4.135 4.135 0 0 0-1.75-.304c-1.24.02-2.4.51-3.27 1.4l-2.38 2.44a4.642 4.642 0 0 0 .07 6.56c.88.85 2.03 1.32 3.25 1.32h.04c1.24-.02 2.4-.51 3.27-1.4l2.39-2.44a4.643 4.643 0 0 0 1.129-4.58Zm-1.986-.988.072.078a3.393 3.393 0 0 1-.103 4.63l-2.38 2.43a3.37 3.37 0 0 1-2.39 1.02c-.93-.01-1.76-.34-2.41-.97a3.392 3.392 0 0 1-.06-4.79l2.38-2.44c.64-.64 1.49-1.01 2.4-1.01a3.386 3.386 0 0 1 2.49 1.052Zm1.006-.765a1.741 1.741 0 1 0 1.223-2.977 1.741 1.741 0 0 0-1.33 2.861l.107.116Z" fill="#fff" fill-rule="evenodd"/><path d="M15.823 9.26c.49.33 1.06.5 1.65.5 1.65 0 2.99-1.34 2.99-3.01 0-1.21-.72-2.29-1.84-2.76a.63.63 0 0 0-.82.34c-.13.32.02.69.34.82.65.27 1.07.9 1.07 1.61a1.741 1.741 0 0 1-2.7 1.45.629.629 0 0 0-.69 1.05Z" fill="#fff"/><path clip-rule="evenodd" d="M21.243 15.81a1.408 1.408 0 0 1-1.31 1.406v3.144c0 .55-.38 1.05-.96 1.28-.23.09-.47.13-.71.13-.58 0-1.13-.25-1.44-.7-.16-.23-.24-.48-.24-.73v-3.123a1.408 1.408 0 0 1-1.32-1.407v-1.58c0-1.21.99-2.2 2.2-2.2h.18v-1.19c0-.35.28-.62.62-.62.34 0 .63.28.63.62v1.19h.15c1.21 0 2.2.99 2.2 2.2v1.58Zm-3.6-2.54v.57c0 .34.28.62.62.62.34 0 .62-.28.63-.62v-.57h.16c.52 0 .95.42.95.95v1.58c0 .09-.07.16-.16.16h-3.16c-.09 0-.16-.07-.16-.16v-1.58c0-.52.42-.95.95-.95h.17Zm.19 3.95v3.13c.1.14.41.24.69.13a.403.403 0 0 0 .17-.12v-3.14h-.86Z" fill="#fff" fill-rule="evenodd"/></svg>