<svg class="seo-pages-0" data-testid="IconCar24" fill="none" height="24" viewBox="0 0 24 24" width="24" xmlns="http://www.w3.org/2000/svg"><path d="M18.86 7.3c.1.24.33.38.57.38.09 0 .17-.02.24-.06.32-.14.47-.5.33-.82l-1.42-3.29a2.285 2.285 0 0 0-2.1-1.38H7.51c-.92 0-1.74.54-2.1 1.38L3.99 6.8c-.13.32.02.68.33.82.31.14.68 0 .82-.32l1.42-3.29c.16-.37.54-.62.95-.62h8.98c.41 0 .79.24.95.62l1.42 3.29ZM19.49 13.92a1.6 1.6 0 1 1-3.2 0 1.6 1.6 0 0 1 3.2 0ZM6.11 15.52a1.6 1.6 0 1 0 0-3.2 1.6 1.6 0 0 0 0 3.2Z" fill="#fff"/><path clip-rule="evenodd" d="M15.43 18.69H8.55v2.4c.02.69-.54 1.25-1.23 1.25H4.91c-.69 0-1.25-.56-1.25-1.25v-2.413a2.545 2.545 0 0 1-2.28-2.527V11.7c0-1.4 1.14-2.54 2.54-2.54h16.17c1.4 0 2.54 1.14 2.54 2.54v4.45a2.552 2.552 0 0 1-2.3 2.528v2.412c.02.69-.54 1.25-1.24 1.25h-2.41c-.69 0-1.25-.56-1.25-1.25v-2.4Zm3.66 0h-2.42v2.4h2.42v-2.4Zm-14.19 0h2.41v2.4H4.9v-2.4Zm-2.27-7c0-.71.58-1.29 1.29-1.29v.01h16.17c.71 0 1.29.58 1.29 1.29v4.44c0 .71-.58 1.29-1.29 1.29H3.92c-.71 0-1.29-.58-1.29-1.29v-4.45Z" fill="#fff" fill-rule="evenodd"/></svg>