<svg xmlns="http://www.w3.org/2000/svg" width="30px" height="30px" fill="none" viewBox="0 0 24 24" class="seo-pages-12fc1ls-MediaObjectItem" role="img" version="1.1"><path fill="#121214" fill-rule="evenodd" d="M4.35 12.136c-.973 0-1.602-.096-1.627-.1a.625.625 0 0 1-.52-.67C2.63 6.31 6.946 2.35 12.025 2.35c4.988 0 9.297 3.956 9.81 9.005a.624.624 0 0 1-.545.684c-1.769.219-3.289-.178-4.524-1.176-1.388-1.121-2.135-2.782-2.53-4.098-2.467 4.71-7.345 5.371-9.888 5.371Zm-.83-1.267c1.986.156 8.276.118 10.316-6.408a.625.625 0 0 1 1.219.13c.003.036.35 3.569 2.501 5.302.815.658 1.81.955 2.947.953C19.776 6.734 16.17 3.6 12.026 3.6c-4.232 0-7.856 3.147-8.506 7.269Z" clip-rule="evenodd"/><path fill="#121214" d="M12.027 21.6a9.21 9.21 0 0 1-9.166-8.187.624.624 0 1 1 1.242-.138 7.961 7.961 0 0 0 7.924 7.075 7.958 7.958 0 0 0 7.924-7.084.625.625 0 1 1 1.243.139 9.208 9.208 0 0 1-9.167 8.195Z"/><path fill="#121214" d="M14.55 14.376a1.036 1.036 0 1 1-.002-2.071 1.036 1.036 0 0 1 .003 2.071ZM8.54 13.34a1.036 1.036 0 1 0 2.072 0 1.036 1.036 0 0 0-2.072 0ZM9.126 17.003a4.1 4.1 0 0 0 2.916 1.207h.003a4.103 4.103 0 0 0 2.918-1.212.624.624 0 1 0-.885-.883 2.86 2.86 0 0 1-2.034.845h-.002a2.854 2.854 0 0 1-2.032-.842.626.626 0 0 0-.884.885Z"/></svg>