<svg xmlns="http://www.w3.org/2000/svg" width="30px" height="30px" fill="none" viewBox="0 0 24 24" class="seo-pages-12fc1ls-MediaObjectItem" role="img" version="1.1"><path fill="#fff" d="M17.4 3.4c-.3 0-.6-.3-.6-.6V1.6c0-.3.3-.6.6-.6s.6.3.6.6v1.2c0 .4-.3.6-.6.6Z"/><path fill="#fff" fill-rule="evenodd" d="M17.4 8.7c-1.3 0-2.3-1-2.3-2.3 0-1.3 1-2.3 2.3-2.3 1.3 0 2.3 1 2.3 2.3 0 1.3-1.1 2.3-2.3 2.3Zm0-3.4c-.6 0-1 .5-1 1s.5 1 1 1 1-.5 1-1-.5-1-1-1Z" clip-rule="evenodd"/><path fill="#fff" d="M17.4 11.8c-.3 0-.6-.3-.6-.6V9.9c0-.3.3-.6.6-.6s.6.3.6.6v1.2c0 .4-.3.7-.6.7ZM13.3 9.4c-.2 0-.4-.1-.5-.3-.2-.3-.1-.7.2-.9l1-.6c.3-.2.7-.1.9.2.2.3.1.7-.2.9l-1 .6c-.2.1-.3.1-.4.1ZM20.5 5.2c-.2 0-.4-.1-.5-.3-.3-.3-.2-.7.1-.9l1-.6c.3-.2.7-.1.9.2.2.4.1.8-.2.9l-1 .6c-.1.1-.2.1-.3.1ZM21.5 9.4c-.1 0-.2 0-.3-.1l-1-.6c-.3-.2-.4-.6-.2-.9.2-.3.6-.4.9-.2l1 .6c.3.2.4.6.2.9-.2.2-.4.3-.6.3ZM14.3 5.2c-.1 0-.2 0-.3-.1l-1-.6c-.3-.2-.4-.6-.2-.9.2-.3.6-.4.9-.2l1 .6c.3.2.4.6.2.9-.2.2-.4.3-.6.3Z"/><path fill="#fff" fill-rule="evenodd" d="M19.7 19.7h-2.228c.018.13.028.264.028.4-.1 1.5-1.3 2.8-2.8 2.8a2.795 2.795 0 0 1-2.771-3.2H2.4c-.3 0-.6-.3-.6-.6s.3-.6.6-.6h10.001a2.775 2.775 0 0 1 2.299-1.2c.933 0 1.788.464 2.302 1.2H19.1v-1.9c0-.6-.5-1.1-1.1-1.2l-5.9-.6c-.05 0-.1-.025-.15-.05a.355.355 0 0 0-.15-.05l-5.1-4.1c-.3-.2-.3-.6-.1-.9.2-.2.6-.3.9-.1l5 4 5.7.6c1.2.1 2.2 1.2 2.2 2.4v2.5c0 .3-.3.6-.7.6Zm-5-1.1c-.8 0-1.5.7-1.5 1.5s.7 1.5 1.5 1.5 1.5-.7 1.5-1.5-.7-1.5-1.5-1.5Z" clip-rule="evenodd"/><path fill="#fff" d="M2.4 14.8h5.5c.4 0 .6-.3.6-.6s-.3-.6-.6-.6H2.4c-.3 0-.6.3-.6.6s.3.6.6.6Z"/></svg>