<svg xmlns="http://www.w3.org/2000/svg" width="17.454545456px" height="17.454545456px" fill="none" viewBox="0 0 24 24" class="seo-pages-1o6k71p" role="img" version="1.1"><path fill="#fff" d="m10.56 20.82.43.49.46-.44.009-.009c.095-.091.88-.849 2.321-2.681.22-.27.17-.67-.1-.88a.622.622 0 0 0-.88.1 33.94 33.94 0 0 1-1.74 2.08C9.65 17.77 5.34 12.26 5.34 9c0-2.5 1.99-5.15 5.66-5.15 3.57 0 5.56 2.29 5.69 4.55l.04.85c.01.35.25.62.65.6.35-.01.61-.31.6-.65l-.04-.86c-.15-2.85-2.59-5.74-6.93-5.74C6.52 2.6 4.1 5.9 4.1 9c0 4.34 6.2 11.52 6.46 11.82Z"/><path fill="#fff" fill-rule="evenodd" d="M11.1 6.72c-1.52 0-2.75 1.23-2.75 2.75s1.23 2.75 2.75 2.75 2.75-1.23 2.75-2.75-1.23-2.75-2.75-2.75Zm0 1.25c.83 0 1.5.67 1.5 1.5s-.67 1.5-1.5 1.5-1.5-.67-1.5-1.5.67-1.5 1.5-1.5Z" clip-rule="evenodd"/><path fill="#fff" d="M19.57 15.28a.628.628 0 0 0 .07-.94l-2.48-2.48a.628.628 0 0 0-.88 0c-.24.24-.24.64 0 .88l1.42 1.42H9.88c-.34 0-.62.28-.62.62 0 .34.28.62.62.62h7.81l-1.42 1.42a.619.619 0 0 0 .44 1.06c.16 0 .32-.06.44-.18l2.42-2.42Z"/></svg>