<svg class="seo-pages-1k3ic0j" data-testid="IconFavoriteOutline24" fill="none" height="24" viewBox="0 0 24 24" width="24" xmlns="http://www.w3.org/2000/svg" color="currentColor"><path d="M16.71 4.53c.42 0 .88.06 1.34.18.04 0 3.58 1.15 2.37 6.01-.84 3.36-5.76 7.62-8.18 9.44a.39.39 0 0 1-.46-.01l-1.8-1.42c-3.6-3.04-5.88-5.89-6.41-8.01-1.21-4.85 2.33-6 2.37-6.01.46-.12.92-.18 1.34-.18 1.99 0 3.15 1.35 3.66 2.16l.71 1.13c.16.25.53.25.68 0l.71-1.13c.51-.81 1.66-2.16 3.66-2.16m0-1.25c-2.26 0-3.78 1.32-4.66 2.65-.03.04-.09.04-.11 0-.87-1.34-2.4-2.65-4.66-2.65a6.7 6.7 0 0 0-1.65.22c-1.26.32-4.55 2.4-3.27 7.52.76 3.05 4.13 6.4 6.82 8.67l2.58 2.03c.13.1.31.11.44.01 1.34-1 8.36-6.38 9.44-10.71 1.28-5.12-2.02-7.2-3.27-7.52a6.7 6.7 0 0 0-1.65-.22h-.01Z" fill="#fff"/></svg>