<svg xmlns="http://www.w3.org/2000/svg" width="30px" height="30px" fill="none" viewBox="0 0 24 24" class="seo-pages-12fc1ls-MediaObjectItem" role="img" version="1.1"><path fill="#121214" d="M3 8c0 .3.3.6.6.6 2.2 0 4-1.8 4-4 0-.3-.3-.6-.6-.6-.4 0-.7.3-.7.7 0 1.5-1.2 2.7-2.7 2.7-.3 0-.6.3-.6.6Z"/><path fill="#121214" d="M3.2 11.2c0 .3.3.6.6.6 4 0 7.2-3.2 7.2-7.2-.1-.3-.3-.6-.7-.6-.3 0-.6.3-.6.7 0 3.2-2.6 5.9-5.9 5.9-.3 0-.6.3-.6.6Z"/><path fill="#121214" fill-rule="evenodd" d="M17 19.8h-6c-.9 0-1.7-.7-1.7-1.7v-4.7c0-.9.7-1.7 1.7-1.7h4.7V9.1c0-1.6 1.3-2.8 2.8-2.8 1.5 0 2.8 1.3 2.8 2.8v1c0 .3-.3.6-.6.6s-.7-.3-.7-.6v-1c0-.9-.7-1.6-1.6-1.6-.9 0-1.6.7-1.6 1.6v2.6h.2c.9 0 1.7.7 1.7 1.7v4.7c0 .9-.7 1.7-1.7 1.7ZM11.1 13c-.3 0-.4.2-.4.4v4.7c0 .2.2.4.4.4h6c.2 0 .4-.2.4-.4v-4.7c0-.2-.2-.4-.5-.4h-5.9Z" clip-rule="evenodd"/></svg>