<svg class="seo-pages-0" data-testid="IconLogout24" fill="none" height="24" viewBox="0 0 24 24" width="24" xmlns="http://www.w3.org/2000/svg"><path d="M12.35 21.5H4.63a.63.63 0 0 1-.63-.62V3.62A.63.63 0 0 1 4.63 3h7.72a.62.62 0 0 1 0 1.24H5.22v16h7.1a.63.63 0 1 1 0 1.25l.03.01Z" fill="#121214"/><path d="M20.84 12.25v-.07a.63.63 0 0 0-.17-.37l-4-4a.62.62 0 0 0-.88.88l2.93 2.93h-9a.63.63 0 1 0 0 1.25h9l-2.91 2.91a.64.64 0 0 0 0 .89.63.63 0 0 0 .88 0l4-4a.8.8 0 0 0 .17-.24.58.58 0 0 0 0-.19l-.02.01Z" fill="#121214"/></svg>