<svg xmlns="http://www.w3.org/2000/svg" width="30px" height="30px" fill="none" viewBox="0 0 24 24" class="seo-pages-12fc1ls-MediaObjectItem" role="img" version="1.1"><path fill="#fff" d="M5.078 21.766h14.199a2.629 2.629 0 0 0 2.625-2.625V6.885a.625.625 0 0 0-1.25 0v12.256c0 .758-.617 1.375-1.375 1.375H5.078a1.377 1.377 0 0 1-1.375-1.375V7.415c0-.757.617-1.375 1.375-1.375h15.078a1.946 1.946 0 0 0 0-3.89H2.475a.625.625 0 0 0 0 1.25h17.681c.381 0 .691.311.691.695 0 .384-.31.695-.691.695H5.078a2.629 2.629 0 0 0-2.625 2.625v11.726a2.629 2.629 0 0 0 2.625 2.625Z"/><path fill="#fff" d="M10.648 16.684a.622.622 0 0 0 .883 0l6.635-6.651a.625.625 0 0 0-.886-.883l-6.19 6.208-2.874-2.883a.625.625 0 0 0-.885.883l3.317 3.326Z"/></svg>