<svg width="24px" height="24px" viewBox="0 0 16 16" fill="none" xmlns="http://www.w3.org/2000/svg" class="css-1moeh8l" role="img" version="1.1"><path fill-rule="evenodd" clip-rule="evenodd" d="M7.986 14.795a6.888 6.888 0 0 1-3.435-.916 6.809 6.809 0 0 1-3.216-4.17 6.767 6.767 0 0 1 .692-5.188C3.929 1.252 8.153.13 11.445 2.015a.5.5 0 0 1-.498.867C8.132 1.27 4.518 2.23 2.892 5.024a5.772 5.772 0 0 0-.591 4.426 5.817 5.817 0 0 0 2.748 3.562c2.815 1.614 6.431.654 8.055-2.142.248-.425 1-1.718.736-3.729-.151-1.163-.541-1.692-.855-1.8-.316-.106-.672.182-.855.364-2.037 2.021-5.279 5.173-5.279 5.173a.499.499 0 0 1-.702-.005L4.157 8.878a.5.5 0 1 1 .707-.707l1.643 1.646c.895-.87 3.291-3.208 4.917-4.822.813-.806 1.531-.72 1.884-.6.799.273 1.34 1.202 1.525 2.617.204 1.558-.087 3.026-.864 4.361-1.276 2.194-3.598 3.422-5.983 3.422Z" fill="#fff"/></svg>