<svg xmlns="http://www.w3.org/2000/svg" width="30px" height="30px" fill="none" viewBox="0 0 24 24" class="seo-pages-0" role="img" version="1.1"><path fill="#fff" d="M20.47 21.12c0 .34.27.62.62.62s.63-.28.63-.63V9.78c0-1.14-1.09-2.04-2.1-2.08h-.84l-2.85-4.62c-.32-.48-.97-.83-1.55-.83h-4.07c-.71 0-1.29.58-1.29 1.29v2.6a.625.625 0 0 0 1.25 0l.04-2.65h4.07c.16 0 .42.14.5.26l3.02 4.9c.11.19.31.3.53.3h1.16c.38.02.88.43.88.83v11.34Z"/><path fill="#fff" d="M2.87 21.74h16.26c.35 0 .62-.29.62-.63s-.27-.62-.62-.62H3.5V8.99h6.15c.34 0 .62-.29.62-.63s-.27-.62-.62-.62H2.87c-.34 0-.62.28-.62.62v12.75c0 .35.28.63.62.63Z"/><path fill="#fff" fill-rule="evenodd" d="M11.91 8.99h3.87c.23 0 .44-.13.57-.34.1-.2.09-.45-.04-.64l-1.94-2.84a.631.631 0 0 0-.52-.27h-1.94c-.34 0-.62.28-.62.62v2.85c0 .34.27.62.62.62Zm2.68-1.25h-2.06V6.15h.98l1.08 1.59ZM2.87 6.77h3.67c.34 0 .62-.28.62-.63V3.81c0-.86-.65-1.56-1.45-1.56H3.7c-.81 0-1.45.68-1.45 1.56v2.33c0 .35.28.63.62.63Zm3.04-1.25H3.5V3.81c0-.17.09-.31.2-.31h2.01c.09 0 .2.13.2.31v1.71ZM9.56 15.73c0 1.33 1.08 2.42 2.42 2.42a2.43 2.43 0 0 0 2.43-2.42c0-1.104-1.553-3.91-1.875-4.49l-.005-.01c-.22-.39-.87-.39-1.09 0-.31.56-1.88 3.4-1.88 4.5Zm1.25 0c0-.4.54-1.64 1.17-2.87.63 1.22 1.18 2.47 1.17 2.87 0 .64-.53 1.17-1.17 1.17-.64 0-1.17-.52-1.17-1.17Z" clip-rule="evenodd"/></svg>