<svg xmlns="http://www.w3.org/2000/svg" width="30px" height="30px" fill="none" viewBox="0 0 24 24" class="seo-pages-12fc1ls-MediaObjectItem" role="img" version="1.1"><path fill="#121214" fill-rule="evenodd" d="M14.727 9.505c-.589 0-1.128-.237-1.558-.685-.644-.67-1.015-1.798-.969-2.945.077-1.96 1.226-3.425 2.676-3.425h.035c1.634.065 2.53 1.896 2.462 3.629-.079 1.954-1.216 3.426-2.646 3.426Zm.136-5.805c-.738 0-1.365.973-1.415 2.225-.03.794.22 1.609.622 2.029.194.202.41.301.657.301.721 0 1.347-.998 1.397-2.225.037-.954-.375-2.295-1.248-2.33h-.013ZM9.287 9.505c-1.43 0-2.566-1.472-2.644-3.425-.07-1.733.826-3.564 2.445-3.63h.033c1.468 0 2.617 1.466 2.695 3.425.046 1.146-.325 2.274-.966 2.943-.432.449-.972.687-1.563.687ZM9.136 3.7h-.013c-.785.032-1.275 1.23-1.232 2.33.05 1.226.676 2.224 1.396 2.224.249 0 .465-.1.66-.303.403-.418.652-1.233.62-2.026C10.517 4.674 9.89 3.7 9.136 3.7ZM4.79 14.826c-1.542 0-2.75-1.663-2.75-3.785 0-2.123 1.208-3.786 2.75-3.786 1.543 0 2.751 1.663 2.751 3.786 0 2.122-1.208 3.785-2.751 3.785Zm0-6.32c-.799 0-1.5 1.184-1.5 2.535 0 1.35.701 2.535 1.5 2.535.8 0 1.501-1.185 1.501-2.535S5.59 8.505 4.79 8.505ZM16.463 11.041c0 2.122 1.208 3.785 2.75 3.785 1.543 0 2.75-1.663 2.75-3.785 0-2.123-1.207-3.786-2.75-3.786-1.542 0-2.75 1.663-2.75 3.786Zm1.25 0c0-1.35.7-2.536 1.5-2.536s1.5 1.185 1.5 2.536c0 1.35-.7 2.535-1.5 2.535s-1.5-1.185-1.5-2.535Z" clip-rule="evenodd"/><path fill="#121214" d="M10.673 21.53a.624.624 0 0 0 .702-.537.625.625 0 0 0-.536-.703c-1.391-.186-3.724-.774-3.724-2.625 0-1.08.703-1.827 1.34-2.505l.012-.012a4.15 4.15 0 0 0 1.186-1.694.805.805 0 0 0 .027-.096c.087-.437.608-2.618 2.322-2.618 1.713 0 2.235 2.181 2.322 2.618a.714.714 0 0 0 .029.097 4.03 4.03 0 0 0 1.14 1.648c.688.726 1.399 1.476 1.399 2.562 0 1.57-1.865 2.386-3.612 2.626a.625.625 0 0 0-.534.704.63.63 0 0 0 .704.534c2.894-.398 4.692-1.879 4.692-3.864 0-1.584-.965-2.602-1.79-3.467a2.893 2.893 0 0 1-.813-1.139c-.361-1.735-1.475-3.569-3.537-3.569s-3.177 1.835-3.538 3.57a3.002 3.002 0 0 1-.856 1.183c-.777.819-1.743 1.837-1.743 3.422 0 2.047 1.752 3.455 4.808 3.865Z"/></svg>