<svg xmlns="http://www.w3.org/2000/svg" width="17.454545456px" height="17.454545456px" fill="none" viewBox="0 0 24 24" class="seo-pages-1o6k71p" role="img" version="1.1"><path fill="#fff" d="M11.47 21.65H6.69c-.29 0-.56-.17-.68-.43a.754.754 0 0 1 .11-.8l4.43-5.24H3.43a.74.74 0 0 1-.69-.46L.06 8.27c-.1-.23-.07-.5.07-.7.14-.21.37-.33.62-.33h1.92c.16 0 .31.05.44.14L6.05 9.5h7.62c.41 0 .75.34.75.75s-.34.75-.75.75H5.81c-.16 0-.31-.05-.44-.14L2.43 8.74h-.56l2.05 4.94h8.24c.29 0 .56.17.68.43s.08.58-.11.8L8.3 20.15h2.82l5.45-6.22a.76.76 0 0 1 .56-.26h2.83c1.46-.02 2.04-.16 2.04-1.5 0-.58-.19-.76-.25-.82-.35-.36-1.18-.35-1.79-.35h-2.85c-.22 0-.42-.09-.57-.26L11.13 4.5h-2.9l1.22 1.58c.25.33.19.8-.14 1.05-.33.26-.8.19-1.05-.13L6.11 4.21a.733.733 0 0 1-.08-.79c.13-.26.39-.42.67-.42h4.77c.22 0 .42.09.57.26l5.41 6.24h2.5c.87 0 2.06-.01 2.85.78.46.45.69 1.09.69 1.88 0 2.95-2.43 2.99-3.47 3.01h-2.54l-5.45 6.22c-.14.16-.34.26-.56.26Z"/></svg>