<svg xmlns="http://www.w3.org/2000/svg" width="30px" height="30px" fill="none" viewBox="0 0 24 24" class="seo-pages-12fc1ls-MediaObjectItem" role="img" version="1.1"><path fill="#fff" d="M11.941 5.65a.625.625 0 0 1-.625-.625v-2.5a.625.625 0 0 1 1.25 0v2.5c0 .345-.28.625-.625.625Z"/><path fill="#fff" fill-rule="evenodd" d="M11.964 16.59a4.63 4.63 0 0 1-4.625-4.626 4.63 4.63 0 0 1 4.625-4.625 4.63 4.63 0 0 1 4.626 4.625 4.63 4.63 0 0 1-4.626 4.625Zm0-8a3.379 3.379 0 0 0-3.375 3.374 3.379 3.379 0 0 0 3.375 3.375 3.379 3.379 0 0 0 3.375-3.375 3.379 3.379 0 0 0-3.375-3.375Z" clip-rule="evenodd"/><path fill="#fff" d="M6.6 7.516a.623.623 0 0 0 .884 0 .625.625 0 0 0 0-.884L5.717 4.864a.626.626 0 0 0-.885.885L6.6 7.516ZM5.025 12.613h-2.5a.625.625 0 0 1 0-1.25h2.5a.625.625 0 0 1 0 1.25ZM4.864 19.097a.623.623 0 0 0 .884 0l1.768-1.767a.626.626 0 0 0-.885-.885l-1.767 1.768a.625.625 0 0 0 0 .884ZM11.988 22.029a.625.625 0 0 1-.625-.625v-2.5a.625.625 0 0 1 1.25 0v2.5c0 .345-.28.625-.625.625ZM18.213 19.065a.623.623 0 0 0 .884 0 .625.625 0 0 0 0-.884l-1.767-1.768a.626.626 0 0 0-.885.885l1.768 1.767ZM21.404 12.566h-2.5a.625.625 0 0 1 0-1.25h2.5a.625.625 0 0 1 0 1.25ZM16.413 7.484a.623.623 0 0 0 .884 0l1.768-1.767a.626.626 0 0 0-.885-.885L16.413 6.6a.625.625 0 0 0 0 .884Z"/></svg>