<svg xmlns="http://www.w3.org/2000/svg" width="30px" height="30px" fill="none" viewBox="0 0 24 24" class="seo-pages-12fc1ls-MediaObjectItem" role="img" version="1.1"><path fill="#121214" d="M9.868 5.767a.625.625 0 0 0 1.25 0V4.046a.626.626 0 0 0-1.25 0v1.72ZM13.493 6.392a.625.625 0 0 1-.625-.625V4.046a.626.626 0 0 1 1.25 0v1.72c0 .346-.28.626-.625.626Z"/><path fill="#121214" fill-rule="evenodd" d="M7.358 7.563V1.625c0-.344.28-.625.625-.625h8.02c.345 0 .625.281.625.625v5.938h.683c.346 0 .625.28.625.625v7.198a3.662 3.662 0 0 1-3.658 3.658h-1.66v3.302a.625.625 0 0 1-1.25 0v-3.927c0-.344.28-.625.625-.625h2.285a2.41 2.41 0 0 0 2.408-2.408V8.813H7.3v6.573a2.423 2.423 0 0 0 1.699 2.302.625.625 0 0 1-.369 1.195 3.676 3.676 0 0 1-2.58-3.497V8.188c0-.345.28-.625.625-.625h.683Zm8.02-5.312v5.312h-6.77V2.251h6.77Z" clip-rule="evenodd"/></svg>